<svg xmlns="http://www.w3.org/2000/svg" width="400" height="400" viewBox="0 0 399.95 399.95" xmlns:xlink="http://www.w3.org/1999/xlink" shape-rendering="geometricPrecision" text-rendering="geometricPrecision" image-rendering="optimizeQuality" fill-rule="evenodd" clip-rule="evenodd">
    <defs>
        <linearGradient id="id0" gradientUnits="userSpaceOnUse" x1="62.18" y1="178.87" x2="71.05" y2="178.87">
            <stop offset="0" stop-color="#9b531e"/>
            <stop offset="1" stop-color="#ef7f1a"/>
        </linearGradient>
        <linearGradient id="id1" gradientUnits="userSpaceOnUse" xlink:href="#id0" x1="336.29" y1="178.87" x2="327.42" y2="178.87"/>
        <linearGradient id="id2" gradientUnits="userSpaceOnUse" x1="79.69" y1="112.83" x2="83.97" y2="112.83">
            <stop offset="0" stop-color="#c5c6c6"/>
            <stop offset=".502" stop-color="#fefefe"/>
            <stop offset="1" stop-color="#c3c4c4"/>
        </linearGradient>
        <linearGradient id="id3" gradientUnits="userSpaceOnUse" xlink:href="#id2" x1="68.91" y1="115.77" x2="73.19" y2="115.77"/>
        <linearGradient id="id4" gradientUnits="userSpaceOnUse" xlink:href="#id2" x1="325.91" y1="115.77" x2="330.19" y2="115.77"/>
        <linearGradient id="id5" gradientUnits="userSpaceOnUse" xlink:href="#id2" x1="68.91" y1="245.91" x2="73.19" y2="245.91"/>
        <linearGradient id="id6" gradientUnits="userSpaceOnUse" xlink:href="#id2" x1="325.91" y1="245.91" x2="330.19" y2="245.91"/>
        <linearGradient id="id7" gradientUnits="userSpaceOnUse" xlink:href="#id2" x1="315.13" y1="112.83" x2="319.41" y2="112.83"/>
        <linearGradient id="id8" gradientUnits="userSpaceOnUse" xlink:href="#id2" x1="219.48" y1="164.42" x2="219.48" y2="160.14"/>
        <linearGradient id="id9" gradientUnits="userSpaceOnUse" xlink:href="#id2" x1="315.13" y1="228.03" x2="319.41" y2="228.03"/>
        <linearGradient id="id10" gradientUnits="userSpaceOnUse" xlink:href="#id2" x1="79.69" y1="228.03" x2="83.97" y2="228.03"/>
        <linearGradient id="id11" gradientUnits="userSpaceOnUse" xlink:href="#id2" x1="219.48" y1="196.66" x2="219.48" y2="192.38"/>
        <style>.mk3s-fil0{fill:none}.mk3s-fil6{fill:#5b5b5b}.mk3s-fil5{fill:#434242}.mk3s-fil1{fill:#2b2a29}.mk3s-fil4{fill:#ef7f1a}.mk3s-fil18{fill:#9b531e}.mk3s-fil19,.mk3s-fil2{fill:#2b2a29;fill-rule:nonzero}.mk3s-fil19{fill:#9b531e}</style>
    </defs>
    <g id="Layer_x0020_2">
        <path class="mk3s-fil0" d="M0 0h399.95v399.95H0z"/>
        <path class="mk3s-fil1" d="M329.5 318.29h5.06v-21.44h-5.06V66.49H70.45v230.36h-5.06v21.44h5.06v7.26H329.5v-7.26zM287.83 95.06l8.14 8.16v193.76H103.98V100.04l4.99-4.98h178.86z"/>
        <path class="mk3s-fil2" d="M131.23 183.36h176.49v1.04H131.23zM131.23 175.33h176.49v1.04H131.23z"/>
        <path fill="url(#id11)" d="M131.23 196.66v-4.28h176.49v4.28z"/>
        <path class="mk3s-fil4" d="M94.77 201.81h36.42v13.07H94.77zM63.8 78.48h34.36V66.49H63.8zM300.94 78.48h34.36V66.49h-34.36zM32.15 171.81v-5.14l8.39-8.38h48.42v5.41H78l-1.76 3.05v32.71H62.18v-4.38h-8.52v-6.22l5.51-9.55-6.03-10.43H41.62l-1.72 2.96z"/>
        <path class="mk3s-fil1" d="M34.08 171.82v22.72h19.58v-5.68l5.51-9.55-6.03-10.43H41.62l-1.72 2.96z"/>
        <path class="mk3s-fil0" d="M91.84 139.28h32.46v31.93H91.84z"/>
        <path class="mk3s-fil1" d="M124.3 152.58h3.55l3.38 3.38v45.85H87.54v-25.02h4.27v-37.51h32.49z"/>
        <path class="mk3s-fil5" d="M105.23 191.19c0-6.35 8.23-11.51 18.39-11.51s18.4 5.16 18.4 11.51v5.84h-36.79v-5.84z"/>
        <path class="mk3s-fil6" d="M123.62 208.54h-18.39v-11.51c0-6.35 8.23-11.5 18.39-11.5s18.4 5.15 18.4 11.5c0 2.03-.84 3.94-2.32 5.59 1.04.46 1.71 1.22 1.71 2.07 0 1.4-1.82 2.54-4.06 2.54-1.2 0-2.27-.32-3.02-.84-3.01 1.35-6.71 2.15-10.71 2.15z"/>
        <path class="mk3s-fil1" d="M123.62 189.67c6.5 0 11.77 3.3 11.77 7.36 0 4.07-5.27 7.36-11.77 7.36s-11.76-3.29-11.76-7.36c0-4.06 5.26-7.36 11.76-7.36zm0 1.86c4.86 0 8.79 2.47 8.79 5.5 0 3.04-3.93 5.5-8.79 5.5-4.85 0-8.79-2.46-8.79-5.5 0-3.03 3.94-5.5 8.79-5.5z"/>
        <path d="M47.26 173.98c3.07 0 5.55 2.48 5.55 5.54a5.55 5.55 0 01-5.55 5.55c-3.06 0-5.54-2.49-5.54-5.55a5.54 5.54 0 015.54-5.54z" fill="#727271"/>
        <path class="mk3s-fil1" d="M47.26 177.76c.98 0 1.76.79 1.76 1.76a1.756 1.756 0 11-3.51 0c0-.97.78-1.76 1.75-1.76z"/>
        <path fill="url(#id3)" d="M68.91 73.26h4.28v85.03h-4.28z"/>
        <path fill="url(#id2)" d="M79.69 71.23h4.28v83.19h-4.28z"/>
        <path fill="url(#id8)" d="M131.23 164.42v-4.28h176.49v4.28z"/>
        <path class="mk3s-fil6" d="M73.19 154.09h17.88v4.2H73.19zM308.03 154.09h17.88v4.2h-17.88z"/>
        <path fill="url(#id5)" d="M68.91 292.36h4.28v-92.9h-4.28z"/>
        <path fill="url(#id10)" d="M79.69 292.36h4.28V163.7h-4.28z"/>
        <path class="mk3s-fil4" d="M101.42 296.85H63.8v-4.49h37.62z"/>
        <path class="mk3s-fil6" d="M105.96 288.57h188.29v3.24H105.96z"/>
        <path class="mk3s-fil4" d="M336.29 199.46h-28.57v-41.17h28.57z"/>
        <path fill="url(#id6)" d="M330.19 292.36h-4.28v-92.9h4.28z"/>
        <path fill="url(#id9)" d="M319.41 292.36h-4.28V163.7h4.28z"/>
        <path fill="url(#id4)" d="M330.19 73.26h-4.28v85.03h4.28z"/>
        <path fill="url(#id7)" d="M319.41 71.23h-4.28v83.19h4.28z"/>
        <path class="mk3s-fil1" d="M126.58 345.83l-5.6-5.6v-20.04l8.17-14.15c47.56.02 95.07 0 142.63 0l8.16 14.15v20.04l-5.6 5.6H126.58z"/>
        <path class="mk3s-fil4" d="M138.58 311.55v39.93l1.75 3.02h124.05l1.75-3.04v-39.42l-2.66-2.66H140.73z"/>
        <path class="mk3s-fil5" d="M157.59 317.43h69.63v18.99h-69.63z"/>
        <path class="mk3s-fil4" d="M336.59 296.85h-37.62v-4.49h37.62z"/>
        <path class="mk3s-fil1" d="M115.01 214.88l1.83 1.83 1.83-1.82z"/>
        <path d="M249.49 315.7c4.44 0 8.03 3.6 8.03 8.03s-3.59 8.02-8.03 8.02a8.02 8.02 0 01-8.02-8.02c0-4.43 3.59-8.03 8.02-8.03z" fill="#c0621e"/>
        <path class="mk3s-fil18" d="M249.49 319.83a3.899 3.899 0 013.52 5.58l5.78 5.78-1.84 1.83-5.78-5.78c-.51.25-1.07.38-1.68.38-2.15 0-3.89-1.74-3.89-3.89 0-2.15 1.74-3.9 3.89-3.9zM140.73 309.38v38.13l1.1 1.9h122.11l2.29-2.29-.1 4.34-1.75 3.04H140.33l-1.75-3.02v-39.93z"/>
        <path class="mk3s-fil19" d="M152.8 344.2c0-1.02.43-1.99 1.57-1.99 1.14 0 1.57.97 1.57 1.99 0 .96-.43 1.93-1.57 1.93-1.14 0-1.57-.97-1.57-1.93zm-1.28 0c0 1.67 1.07 3 2.85 3s2.84-1.33 2.84-3c0-1.72-1.06-3.06-2.84-3.06-1.78 0-2.85 1.34-2.85 3.06zm7.83-1.93h1.4c.57 0 .87.24.87.8 0 .58-.3.83-.87.83h-1.4v-1.63zm-1.27 4.8h1.27v-2.27h1.28c.64 0 .87.27.96.88.07.46.06 1.02.2 1.39h1.28c-.24-.32-.22-1.01-.25-1.37-.04-.6-.22-1.19-.84-1.36v-.01c.65-.26.92-.77.92-1.46 0-.87-.66-1.59-1.7-1.59h-3.12v5.79zm5.85 0h1.28v-5.79h-1.28v5.79zm6.71 0h.81v-3.13h-2.43v.94h1.28c-.08.82-.55 1.25-1.38 1.25-1.14 0-1.57-.97-1.57-1.93 0-1.02.43-1.99 1.57-1.99.61 0 1.07.32 1.22.97h1.22c-.13-1.32-1.26-2.04-2.44-2.04-1.78 0-2.85 1.34-2.85 3.06 0 1.67 1.07 3 2.85 3 .56 0 1.13-.21 1.59-.79l.13.66zm1.84 0h1.27v-5.79h-1.27v5.79zm2.39 0h1.19v-3.88h.02l2.4 3.88h1.28v-5.79h-1.2v3.88h-.01l-2.42-3.88h-1.26v5.79zm8.22-4.37h.01l.73 2.13h-1.5l.76-2.13zm-2.83 4.37h1.29l.45-1.29h2.17l.43 1.29h1.32l-2.16-5.79h-1.31l-2.19 5.79zm6.17 0h4.09V346h-2.82v-4.72h-1.27v5.79zM194.92 340.63h1.33c.78 0 1.5.17 1.5 1.16 0 .99-.72 1.16-1.5 1.16h-1.33v-2.32zm-1.7 6.44h1.7v-2.79h1.8c1.95 0 2.68-1.23 2.68-2.49 0-1.26-.73-2.49-2.68-2.49h-3.5v7.77zm8.96-6.44h1.87c.77 0 1.17.32 1.17 1.07 0 .79-.4 1.11-1.17 1.11h-1.87v-2.18zm-1.71 6.44h1.71v-3.04h1.71c.85 0 1.17.36 1.29 1.18.09.62.08 1.37.27 1.86h1.71c-.32-.43-.29-1.35-.33-1.84-.05-.8-.29-1.59-1.13-1.82v-.02c.87-.35 1.23-1.03 1.23-1.95 0-1.17-.88-2.14-2.27-2.14h-4.19v7.77zm14.44-7.77h-1.7v4.83c0 1.16-.39 1.68-1.61 1.68-1.38 0-1.6-.83-1.6-1.68v-4.83h-1.71v4.83c0 2.12 1.21 3.12 3.31 3.12 2.07 0 3.31-1.02 3.31-3.12v-4.83zm.98 5.19c-.03 1.91 1.59 2.76 3.31 2.76 2.12 0 3.23-1.07 3.23-2.49 0-1.75-1.73-2.13-2.31-2.26-1.94-.49-2.31-.58-2.31-1.18 0-.65.63-.88 1.17-.88.83 0 1.48.25 1.54 1.18h1.65c0-1.8-1.49-2.51-3.11-2.51-1.4 0-2.91.75-2.91 2.35 0 1.44 1.17 1.93 2.32 2.21 1.13.32 2.31.44 2.31 1.29 0 .79-.92.96-1.51.96-.92 0-1.72-.4-1.72-1.43h-1.66zm10.52-3.28h.02l.98 2.85h-2.01l1.01-2.85zm-3.79 5.86h1.72l.61-1.73h2.91l.59 1.73h1.77l-2.91-7.77h-1.75l-2.94 7.77z"/>
        <path d="M112.92 75.73h2.6c1.53 0 2.94.35 2.94 2.28 0 1.94-1.41 2.28-2.94 2.28h-2.6v-4.56zm-3.34 12.6h3.34v-5.45h3.51c3.81 0 5.26-2.4 5.26-4.87s-1.45-4.87-5.26-4.87h-6.85v15.19zm17.54-12.6h3.66c1.51 0 2.29.64 2.29 2.11 0 1.53-.78 2.17-2.29 2.17h-3.66v-4.28zm-3.34 12.6h3.34V82.4h3.34c1.68 0 2.3.7 2.53 2.29.17 1.22.15 2.68.53 3.64h3.34c-.61-.83-.57-2.64-.64-3.59-.1-1.56-.57-3.11-2.21-3.56v-.04c1.7-.68 2.41-2.02 2.41-3.81 0-2.3-1.73-4.19-4.45-4.19h-8.19v15.19zm28.25-15.19h-3.34v9.45c0 2.27-.76 3.29-3.15 3.29-2.7 0-3.12-1.63-3.12-3.29v-9.45h-3.35v9.45c0 4.15 2.37 6.1 6.47 6.1 4.07 0 6.49-2 6.49-6.1v-9.45zm1.92 10.15c-.06 3.74 3.11 5.4 6.47 5.4 4.15 0 6.32-2.08 6.32-4.87 0-3.43-3.39-4.17-4.51-4.43-3.81-.95-4.54-1.12-4.54-2.29 0-1.28 1.24-1.73 2.3-1.73 1.62 0 2.9.49 3 2.3h3.24c0-3.51-2.92-4.89-6.09-4.89-2.74 0-5.68 1.46-5.68 4.59 0 2.81 2.28 3.77 4.53 4.32 2.22.62 4.51.85 4.51 2.51 0 1.56-1.78 1.9-2.95 1.9-1.79 0-3.37-.79-3.37-2.81h-3.23zm20.58-6.41h.04l1.91 5.58h-3.93l1.98-5.58zm-7.43 11.45h3.38l1.19-3.38h5.69l1.14 3.38h3.47l-5.68-15.19h-3.42l-5.77 15.19z" fill="#434242" fill-rule="nonzero"/>
        <path fill="url(#id0)" d="M62.18 199.46h8.87v-41.17h-8.87z"/>
        <path fill="url(#id1)" d="M336.29 199.46h-8.87v-41.17h8.87z"/>
    </g>
</svg>